<svg width="24" height="24" viewBox="0 0 24 24" fill="none" xmlns="http://www.w3.org/2000/svg">
	<path
		d="M19.066 9.65131L16.1202 12.5972L18.6805 15.1575C19.1482 14.1712 19.41 13.0691 19.41 11.9069C19.409 11.1349 19.2911 10.3752 19.066 9.65131Z"
		fill="white" />
	<path
		d="M4.90361 15.1564C4.42794 14.1498 4.17402 13.0414 4.1731 11.9069C4.17372 11.1348 4.29145 10.3748 4.51644 9.6507L7.46289 12.5972L4.90361 15.1564Z"
		fill="white" />
	<path
		d="M6.40574 17.29C6.37112 17.2553 6.33686 17.2204 6.30297 17.1852L10.891 12.5972L5.66979 7.37593C5.89229 7.07537 6.1379 6.78985 6.40546 6.52216C7.83338 5.09352 9.76981 4.28939 11.79 4.28614C13.8105 4.28939 15.7472 5.09342 17.1756 6.52197C17.4436 6.78997 17.6896 7.07585 17.9124 7.3768L12.692 12.5972L17.2791 17.1842C15.8916 18.6252 13.9434 19.523 11.79 19.523C9.77023 19.521 7.83379 18.7179 6.40574 17.29Z"
		fill="white" />
	<path fill-rule="evenodd" clip-rule="evenodd"
		d="M11.7915 22.6937C17.7502 22.6937 22.5806 17.8632 22.5806 11.9046C22.5806 5.94591 17.7502 1.11546 11.7915 1.11546C5.83287 1.11546 1.00242 5.94591 1.00242 11.9046C1.00242 17.8632 5.83287 22.6937 11.7915 22.6937ZM11.7915 23.4046C18.1428 23.4046 23.2915 18.2558 23.2915 11.9046C23.2915 5.5533 18.1428 0.404572 11.7915 0.404572C5.44026 0.404572 0.291534 5.5533 0.291534 11.9046C0.291534 18.2558 5.44026 23.4046 11.7915 23.4046Z"
		fill="white" />
</svg>