<svg width="25" height="24" viewBox="0 0 25 24" fill="none" xmlns="http://www.w3.org/2000/svg">
	<path fill-rule="evenodd" clip-rule="evenodd"
		d="M12.1949 23.808C18.7163 23.808 24.0029 18.5214 24.0029 12C24.0029 5.47862 18.7163 0.192 12.1949 0.192C5.67354 0.192 0.386916 5.47862 0.386916 12C0.386916 18.5214 5.67354 23.808 12.1949 23.808ZM12.1949 24C18.8223 24 24.1949 18.6274 24.1949 12C24.1949 5.37258 18.8223 0 12.1949 0C5.5675 0 0.194916 5.37258 0.194916 12C0.194916 18.6274 5.5675 24 12.1949 24Z"
		fill="white" />
	<path
		d="M19.8696 9.62276L16.7617 12.7307L19.4629 15.4319C19.9563 14.3913 20.2325 13.2286 20.2325 12.0024C20.2315 11.188 20.1071 10.3865 19.8696 9.62276Z"
		fill="white" />
	<path
		d="M4.928 15.4308C4.42616 14.3687 4.15826 13.1994 4.1573 12.0024C4.15795 11.1878 4.28216 10.386 4.51953 9.62212L7.6281 12.7307L4.928 15.4308Z"
		fill="white" />
	<path
		d="M6.51278 17.6817C6.47625 17.6452 6.44011 17.6083 6.40436 17.5712L11.2448 12.7307L5.73634 7.22218C5.97108 6.90509 6.23021 6.60386 6.51249 6.32143C8.01897 4.81419 10.0619 3.96581 12.1933 3.96239C14.3249 3.96581 16.3683 4.81409 17.8753 6.32124C18.158 6.60398 18.4175 6.90559 18.6526 7.2231L13.145 12.7307L17.9844 17.5701C16.5206 19.0904 14.4652 20.0376 12.1933 20.0376C10.0624 20.0355 8.01941 19.1882 6.51278 17.6817Z"
		fill="white" />
</svg>