<svg
	width="24"
	height="24"
	viewBox="0 0 24 24"
	fill="none"
	xmlns="http://www.w3.org/2000/svg"
>
	<path
		d="M6.50059 9.33899C5.17176 10.6571 4.35294 12.4499 4.35294 14.4225C4.35294 18.461 7.78341 21.7465 12 21.7465C16.2166 21.7465 19.6471 18.461 19.6471 14.4225C19.6471 12.4327 18.8139 10.6261 17.4646 9.30485L19.1267 7.71127C20.9025 9.44073 22 11.811 22 14.4225C22 19.7035 17.514 24 12 24C6.486 24 2 19.7035 2 14.4225C2 11.8282 3.08318 9.47183 4.83847 7.74535L6.50059 9.33899ZM16.0026 5.92355C14.944 4.91076 13.4105 4.28169 12.0006 4.28169C10.5811 4.28169 8.98547 4.91082 7.927 5.92355L7.09465 6.71989L8.75753 8.3142L9.58988 7.51792C10.2138 6.9209 11.1935 6.53521 12 6.53521C12.7971 6.53521 13.7158 6.92096 14.3397 7.51786L15.1721 8.31414L16.8349 6.71983L16.0026 5.92355ZM5.76947 5.27116L6.599 4.47211C8.08429 3.04146 9.99512 2.25352 11.9796 2.25346C13.9636 2.25341 15.8745 3.04135 17.3602 4.47223L18.1898 5.27116L19.8582 3.68203L19.0285 2.8831C17.0979 1.02383 14.5945 -5.63357e-05 11.9795 2.32482e-09C9.36406 5.63404e-05 6.86065 1.024 4.93047 2.88327L4.10094 3.68225L5.76947 5.27116Z"
		fill="white"
	/>
	<path
		d="M7.78353 12.5476H9.8056V16.1532H7.78353V12.5476ZM14.0438 12.5476H16.0659V16.1532H14.0438V12.5476Z"
		fill="white"
	/>
</svg>
