<svg
	width="16"
	height="16"
	viewBox="0 0 16 16"
	fill="none"
	xmlns="http://www.w3.org/2000/svg"
>
	<path
		d="M7.99859 15.04C6.13217 15.0381 4.34276 14.296 3.02313 12.9765C1.70351 11.657 0.961507 9.86799 0.960007 8.00213C0.961505 6.13588 1.70337 4.34642 3.02287 3.02625C4.34238 1.70609 6.13178 0.963007 7.99859 0.960007C9.86566 0.963006 11.6554 1.70599 12.9753 3.02608C14.2953 4.34617 15.0378 6.13562 15.04 8.00213C15.04 11.8837 11.8799 15.04 7.99859 15.04ZM8.05386 2.18257C4.8697 2.18257 2.2793 4.79769 2.2793 8.01063C2.2793 11.2236 4.8697 13.8373 8.05386 13.8373C11.2338 13.8373 13.827 11.2222 13.827 8.01063C13.827 4.79769 11.2338 2.18257 8.05386 2.18257Z"
		fill="white"
	/>
	<path
		d="M5.20839 6.56991H6.58153V9.13686H5.20839V6.56991ZM9.45959 6.56991H10.8327V9.13686H9.45959V6.56991Z"
		fill="white"
	/>
</svg>
